<svg width="380" height="380" viewBox="0 0 380 380" fill="none" xmlns="http://www.w3.org/2000/svg">
<g clip-path="url(#clip0_1000_13176)">
<mask id="path-2-inside-1_1000_13176" fill="white">
<path fill-rule="evenodd" clip-rule="evenodd" d="M0 8.00001C0 3.58173 3.58172 0 8 0H372C376.418 0 380 3.58172 380 8V178C373.373 178 368 183.373 368 190C368 196.627 373.373 202 380 202V372C380 376.418 376.418 380 372 380H8.00001C3.58173 380 0 376.418 0 372V202C6.62742 202 12 196.627 12 190C12 183.373 6.62742 178 0 178V8.00001Z"/>
</mask>
<path d="M380 178V186H388V178H380ZM380 202H388V194H380V202ZM0 202V194H-8V202H0ZM0 178H-8V186H0V178ZM8 -8C-0.836569 -8 -8 -0.836533 -8 8.00001H8V8V-8ZM372 -8H8V8H372V-8ZM388 8C388 -0.836558 380.837 -8 372 -8V8H388ZM388 178V8H372V178H388ZM376 190C376 187.791 377.791 186 380 186V170C368.954 170 360 178.954 360 190H376ZM380 194C377.791 194 376 192.209 376 190H360C360 201.046 368.954 210 380 210V194ZM388 372V202H372V372H388ZM372 388C380.837 388 388 380.837 388 372H372V388ZM8.00001 388H372V372H8.00001V388ZM-8 372C-8 380.837 -0.836535 388 8.00001 388V372H8H-8ZM-8 202V372H8V202H-8ZM4 190C4 192.209 2.20914 194 0 194V210C11.0457 210 20 201.046 20 190H4ZM0 186C2.20914 186 4 187.791 4 190H20C20 178.954 11.0457 170 0 170V186ZM-8 8.00001V178H8V8.00001H-8Z" fill="white" mask="url(#path-2-inside-1_1000_13176)"/>
</g>
<defs>
<clipPath id="clip0_1000_13176">
<rect width="380" height="380" rx="8" fill="white"/>
</clipPath>
</defs>
</svg>
