<svg width="40" height="40" viewBox="0 0 40 40" fill="none" xmlns="http://www.w3.org/2000/svg">
<path d="M20 20C22.0711 20 23.75 18.3211 23.75 16.25C23.75 14.1789 22.0711 12.5 20 12.5C17.9289 12.5 16.25 14.1789 16.25 16.25C16.25 18.3211 17.9289 20 20 20Z" stroke="black" stroke-width="1.5" stroke-linecap="round" stroke-linejoin="round"/>
<path d="M20 8.75C21.9891 8.75 23.8968 9.54018 25.3033 10.9467C26.7098 12.3532 27.5 14.2609 27.5 16.25C27.5 19.657 22.426 28.2 20.625 30.915C20.5566 31.0181 20.4637 31.1027 20.3547 31.1613C20.2456 31.2198 20.1238 31.2504 20 31.2504C19.8762 31.2504 19.7544 31.2198 19.6453 31.1613C19.5363 31.1027 19.4434 31.0181 19.375 30.915C17.574 28.2 12.5 19.657 12.5 16.25C12.5 14.2609 13.2902 12.3532 14.6967 10.9467C16.1032 9.54018 18.0109 8.75 20 8.75Z" stroke="black" stroke-width="1.5" stroke-linecap="round" stroke-linejoin="round"/>
</svg>
